<svg viewBox="0 0 800 560" xmlns="http://www.w3.org/2000/svg" role="img" aria-label="Saree showcase">
  <defs>
    <linearGradient id="heroGradient" x1="0" x2="1" y1="0" y2="1">
      <stop offset="0%" stop-color="#7D1232" />
      <stop offset="100%" stop-color="#C49A6C" />
    </linearGradient>
    <linearGradient id="fabricGlow" x1="0" x2="1" y1="0" y2="1">
      <stop offset="0%" stop-color="#FAF3E8" />
      <stop offset="100%" stop-color="#F2E4C2" />
    </linearGradient>
  </defs>
  <rect width="800" height="560" rx="40" fill="#fff7ee" />
  <path d="M120 360 C 220 260, 340 260, 430 400 C 500 520, 680 520, 740 380 L 740 500 L 120 500 Z" fill="url(#fabricGlow)" />
  <path d="M130 350 C 220 260, 330 250, 420 400 C 500 520, 660 520, 730 390" stroke="#7D1232" stroke-width="16" fill="none" stroke-linecap="round" />
  <path d="M160 170 C 210 220, 240 260, 330 240 C 420 220, 460 180, 560 220 C 660 260, 720 230, 740 280" stroke="#5C1221" stroke-width="20" fill="none" stroke-linecap="round" />
  <ellipse cx="600" cy="150" rx="120" ry="120" fill="url(#heroGradient)" opacity="0.2" />
  <circle cx="190" cy="130" r="50" fill="#C49A6C" opacity="0.25" />
  <path d="M220 140 L280 130 L250 200 Z" fill="#7D1232" opacity="0.9" />
  <path d="M520 190 C 540 230, 590 240, 620 210" stroke="#7D1232" stroke-width="18" fill="none" stroke-linecap="round" />
</svg>
